<svg xmlns="http://www.w3.org/2000/svg" viewBox="0 0 24 24" aria-hidden="true">
    <path fill="#020617" fill-rule="evenodd"
          d="M12 2C6.48 2 2 6.59 2 12.25c0 4.53 2.86 8.36 6.84 9.71.5.09.68-.22.68-.49 0-.24-.01-.88-.01-1.73-2.78.62-3.37-1.37-3.37-1.37-.45-1.19-1.11-1.51-1.11-1.51-.91-.64.07-.63.07-.63 1 .07 1.53 1.06 1.53 1.06.9 1.56 2.35 1.11 2.92.85.09-.67.35-1.11.63-1.37-2.22-.26-4.56-1.14-4.56-5.06 0-1.12.39-2.03 1.03-2.75-.1-.26-.45-1.31.1-2.72 0 0 .84-.28 2.75 1.05A9.27 9.27 0 0 1 12 6.96c.85 0 1.7.12 2.5.34 1.91-1.33 2.75-1.05 2.75-1.05.55 1.41.2 2.46.1 2.72.64.72 1.03 1.63 1.03 2.75 0 3.93-2.34 4.8-4.57 5.05.36.32.68.95.68 1.92 0 1.38-.01 2.49-.01 2.83 0 .27.18.59.69.49A10.2 10.2 0 0 0 22 12.25C22 6.59 17.52 2 12 2Z"
          clip-rule="evenodd"/>
</svg>
